<svg id="visual" viewBox="0 0 32 32" width="32" height="32" xmlns="http://www.w3.org/2000/svg"
    xmlns:xlink="http://www.w3.org/1999/xlink" version="1.1">
    <rect x="0" y="0" width="32" height="32" fill="#001220"></rect>
    <defs>
        <linearGradient id="grad1_0" x1="0%" y1="0%" x2="100%" y2="100%">
            <stop offset="30%" stop-color="#001220" stop-opacity="1"></stop>
            <stop offset="70%" stop-color="#001220" stop-opacity="1"></stop>
        </linearGradient>
    </defs>
    <defs>
        <linearGradient id="grad2_0" x1="0%" y1="0%" x2="100%" y2="100%">
            <stop offset="30%" stop-color="#001220" stop-opacity="1"></stop>
            <stop offset="70%" stop-color="#001220" stop-opacity="1"></stop>
        </linearGradient>
    </defs>
    <g transform="translate(32, 0)">
        <path
            d="M0 20.4C-2.8 20.2 -5.5 20 -7.8 18.8C-10.1 17.6 -11.8 15.5 -13.4 13.4C-15 11.4 -16.4 9.5 -17.6 7.3C-18.7 5.1 -19.5 2.5 -20.4 0L0 0Z"
            fill="#FBAE3C"></path>
    </g>
    <g transform="translate(0, 32)">
        <path
            d="M0 -20.4C3 -20.4 5.9 -20.5 7.8 -18.8C9.7 -17.1 10.4 -13.6 11.3 -11.3C12.2 -9 13.3 -7.8 14.8 -6.1C16.3 -4.4 18.3 -2.2 20.4 0L0 0Z"
            fill="#FBAE3C"></path>
    </g>
</svg>